<svg id="eKSyBguzWMn1" xmlns="http://www.w3.org/2000/svg" xmlns:xlink="http://www.w3.org/1999/xlink" viewBox="0 0 400 400" shape-rendering="geometricPrecision" text-rendering="geometricPrecision" width="400" height="400"><rect width="399.548348" height="413.817932" rx="0" ry="0" transform="matrix(1.08278 0 0 1-14.543941-5.904968)" fill="#c9fbc1" stroke-width="0"/><path d="M-27.808382,6.060915c0,0,21.745942-4.479302,32.374367-7.604102s36.056371-11.23991,36.056371-11.23991" transform="matrix(-11.469588-1.64145 0.933191-6.520647 172.932379 59.80698)" fill="none" stroke="rgba(232,197,0,0.75)" stroke-width="3"/><path d="M-29.156453,-42.510409c3.863255.787997,9.267079,3.128377,9.267079,3.128377s-.776347-9.548869.203642-12.835198s3.606493-12.976865,3.606493-12.976865l3.388089,3.72454L2.209956,-75.795159l17.229682,23.881911l12.566641-10.468248l19.345758-3.792426l4.391525,24.451514l2.936549.475157-1.536988,5.214733l21.141832,4.151806-2.862128,20.544877l2.009836.16232c0,0-7.456813,8.675394-10.869635,11.557283s-9.403592,8.488318-9.403592,8.488318s7.275003,4.659331,10.271275,7.289325s9.703871,10.243967,9.703871,10.243967-15.28359,9.18975-21.231638,11.672383c-3.799506,1.58586-8.670823,1.113482-12.841099,1.342849-2.358204.129702.764378,2.322664.764378,2.322664.102263.00039-10.443648-4.181955-19.284889-7.772653s-14.309746-23.44028-14.309746-23.44028-28.406253-12.944401-32.712203-19.301495-13.944891-33.61235-13.944891-33.61235s3.405798-.914902,7.269053-.126905Z" transform="matrix(.93646-.513792 0.503117 0.917002 64.298362 365.187193)" fill="#5abf4a" stroke="#226518" stroke-width="3"/><path d="M-29.098437,-41.025745c3.863255.787997,9.267079,3.128377,9.267079,3.128377s-.776347-9.548869.203642-12.835198s3.606493-12.976865,3.606493-12.976865l3.388089,3.72454L2.267972,-74.310495l17.229682,23.881911l12.566641-10.468248l19.345758-3.792426l4.391525,24.451514l2.936549.475157-1.536988,5.214733l21.141832,4.151806-2.862128,20.544877l2.009836.16232c0,0-7.456813,8.675394-10.869635,11.557283s-9.403592,8.488318-9.403592,8.488318s7.275003,4.659331,10.271275,7.289325s9.703871,10.243967,9.703871,10.243967-15.28359,9.18975-21.231638,11.672383c-3.799506,1.58586-8.670823,1.113482-12.841099,1.342849-2.358204.129702.764378,2.322664.764378,2.322664.102263.00039-9.993952-4.832304-18.835193-8.423002s-14.759442-22.789931-14.759442-22.789931-28.406253-12.944401-32.712203-19.301495-13.944891-33.61235-13.944891-33.61235s3.405798-.914902,7.269053-.126905Z" transform="matrix(.469235-.959562 0.939624 0.459485 328.760318 373.838933)" fill="#5abf4a" stroke="#226518" stroke-width="3"/><path d="M-25.704045,-40.720839c0,0,16.176568,29.342164,23.633283,39.673572s25.697145,32.45319,25.697145,32.45319" transform="matrix(1.068135-.005356 0.005245 1.045941 319.40505 337.171323)" fill="none" stroke="#236418" stroke-width="3"/><path d="M-25.704045,-40.720839c0,0,16.176568,29.342164,23.633283,39.673572s25.697145,32.45319,25.697145,32.45319" transform="matrix(1.068135-.005356 0.005245 1.045941 319.40505 337.171323)" fill="none" stroke="#236418" stroke-width="3"/><path d="M-27.808382,6.060915c0,0,21.745942-4.479302,32.374367-7.604102s36.056371-11.23991,36.056371-11.23991" transform="matrix(1.068135-.005356 0.005245 1.045941 302.069373 383.281868)" fill="none" stroke="#236418" stroke-width="3"/><path d="M-5.146326,-47.167794c0,0,8.470121,45.912979,9.587128,58.666485s-3.112256,21.439977-3.112256,21.439977" transform="matrix(1.068135-.005356 0.005245 1.045941 342.746962 335.231971)" fill="none" stroke="#236418" stroke-width="3"/><path d="M-6.505922,-82.105216c0,0,7.003627,25.55614,16.000884,34.836916s31.127394,34.485203,31.127394,34.485203" transform="matrix(-.275389-1.032037-1.010594 0.269667 259.262986 383.250675)" fill="none" stroke="#236418" stroke-width="3"/><path d="M24.152473,-31.463672c0,0-17.581813,27.453334-23.688442,35.527532s-21.134127,17.723492-21.134127,17.723492" transform="matrix(1.068135-.005356 0.005245 1.045941 365.397262 346.853893)" fill="none" stroke="#236418" stroke-width="3"/><path d="M-39.625022,-16.916696c7.346724,5.705096,16.299009,8.329797,30.75901,13.128172s21.856796,7.402477,33.752548,7.949429" transform="matrix(1.068135-.005356 0.005245 1.045941 51.386397 363.616165)" fill="none" stroke="#236418" stroke-width="3"/><path d="M42.274681,-36.64171c0,0-8.666892,20.369159-16.3533,34.910896s-24.592835,34.669482-24.592835,34.669482" transform="matrix(1.068135-.005356 0.005245 1.045941 76.746961 336.231972)" fill="none" stroke="#236418" stroke-width="3"/><path d="M45.150702,2.323338c0,0-18.606447,9.139416-29.100679,13.946042s-35.583723,6.035895-35.583723,6.035895" transform="matrix(1.068135-.005356 0.005245 1.045941 99.397263 347.853893)" fill="none" stroke="#236418" stroke-width="3"/><path d="M40.022068,-73.527451c-.994797,8.743569-1.083103,26.72647-2.592021,43.243988s-1.11414,33.044782,1.667722,44.427752" transform="matrix(1.068135-.005356 0.005245 1.045941 37.152163 355.990681)" fill="none" stroke="#236418" stroke-width="3"/><path d="M-6.507533,-83.802997c0,0,7.005238,27.253921,16.002495,36.534697s31.127394,34.485203,31.127394,34.485203" transform="matrix(1.068135-.005356 0.005245 1.045941 36.069373 384.281869)" fill="none" stroke="#236418" stroke-width="3"/></svg>
